<?xml version="1.0" standalone="no"?>
<!DOCTYPE svg PUBLIC "-//W3C//DTD SVG 20010904//EN" "http://www.w3.org/TR/2001/REC-SVG-20010904/DTD/svg10.dtd">
<svg version="1.0" xmlns="http://www.w3.org/2000/svg" width="1000.000000pt" height="1000.000000pt"
    viewBox="0 0 1000.000000 1000.000000" preserveAspectRatio="xMidYMid meet">
    <metadata>
        Created by potrace 1.14, written by Peter Selinger 2001-2017
    </metadata>
    <style>
        #left {
            fill: red;
        }

        #right {
            fill: blue;
        }

        @media (prefers-color-scheme: dark) {
            #left {
                fill: yellow;
            }

            #right {
                fill: pink;
            }
        }
    </style>
    <g transform="translate(0.000000,1000.000000) scale(0.100000,-0.100000)" fill="#000000" stroke="none">
        <path id="left" d="M3090 9688 c-36 -18 -146 -70 -415 -196 -82 -38 -217 -102 -299 -141
-82 -39 -150 -71 -151 -71 -2 0 -73 -34 -160 -75 -86 -41 -158 -75 -160 -75
-1 0 -78 -36 -169 -80 -92 -44 -168 -80 -170 -80 -2 0 -64 -29 -137 -64 -208
-98 -288 -136 -364 -171 -38 -18 -119 -56 -180 -85 -60 -29 -142 -67 -180 -85
l-70 -33 0 -2352 c0 -2081 2 -2354 15 -2361 14 -8 160 -78 360 -172 111 -52
248 -116 404 -191 76 -36 140 -66 141 -66 2 0 87 -40 190 -90 103 -49 188 -90
190 -90 1 0 67 -31 146 -68 79 -38 176 -84 214 -102 155 -73 255 -120 350
-165 55 -26 132 -62 170 -80 39 -18 123 -58 188 -89 65 -31 122 -56 126 -56 8
0 62 25 341 157 52 25 208 98 345 163 263 124 414 195 555 263 47 22 87 41 90
42 3 1 39 17 80 37 41 20 120 57 175 83 55 26 136 64 180 85 152 72 340 161
430 203 49 23 137 65 195 93 l105 51 -100 48 c-55 26 -136 64 -180 85 -44 20
-114 53 -155 73 -41 19 -266 125 -500 235 -234 110 -470 221 -525 247 -55 26
-129 61 -165 77 -36 17 -117 55 -180 86 -63 30 -137 65 -165 77 -27 12 -90 42
-140 65 -49 23 -155 73 -235 111 l-145 69 -3 1175 -2 1176 107 50 c60 28 146
69 193 91 47 22 119 56 160 76 41 20 78 35 83 34 4 -1 7 2 7 8 0 5 5 10 11 10
7 0 44 16 84 35 40 19 119 57 176 84 57 26 147 69 199 93 52 25 120 57 150 71
30 14 109 51 175 82 205 98 348 166 405 192 30 14 120 56 199 94 79 38 145 69
146 69 2 0 83 38 180 85 98 47 181 85 185 85 4 0 13 6 19 14 10 11 8 16 -9 21
-11 4 -78 34 -148 67 -70 33 -182 87 -250 119 -68 33 -125 59 -127 59 -1 0
-78 36 -169 80 -92 44 -168 80 -170 80 -2 0 -73 33 -157 74 -85 40 -181 86
-214 101 -160 74 -210 97 -338 159 -77 36 -140 66 -142 66 -1 0 -63 29 -136
64 -74 35 -174 83 -224 106 -49 23 -121 57 -160 75 -38 19 -108 51 -155 72
l-85 39 -35 -18z" />
        <path id="right" d="M6790 7317 c-62 -30 -136 -65 -365 -173 -55 -25 -165 -78 -244 -115
-79 -38 -145 -69 -147 -69 -1 0 -73 -34 -159 -75 -87 -41 -159 -75 -161 -75
-1 0 -78 -36 -170 -80 -91 -44 -167 -80 -169 -80 -1 0 -67 -31 -146 -69 -79
-37 -171 -81 -204 -96 -33 -15 -107 -50 -165 -78 -58 -27 -130 -61 -160 -75
-30 -13 -116 -54 -190 -89 l-135 -65 76 -37 c42 -20 114 -54 160 -75 46 -22
145 -68 219 -104 74 -35 202 -95 284 -134 82 -38 205 -96 275 -130 69 -33 158
-75 198 -94 39 -18 120 -56 180 -85 59 -28 135 -64 168 -79 33 -15 114 -54
180 -85 66 -32 152 -72 190 -90 167 -78 219 -102 365 -172 85 -41 165 -79 178
-84 l22 -9 0 -1174 0 -1175 -87 -42 c-49 -23 -128 -61 -178 -84 -86 -41 -211
-100 -360 -170 -38 -18 -90 -42 -115 -53 -25 -11 -121 -57 -213 -101 -93 -45
-170 -81 -172 -81 -2 0 -61 -27 -132 -61 -70 -33 -159 -76 -198 -94 -38 -18
-110 -52 -160 -76 -49 -24 -92 -44 -95 -44 -3 -1 -39 -18 -80 -37 -138 -65
-424 -200 -520 -245 -157 -73 -180 -85 -180 -89 0 -3 36 -21 235 -114 44 -21
123 -58 175 -83 52 -25 138 -65 190 -90 103 -48 398 -187 550 -260 52 -25 129
-61 170 -80 82 -38 205 -96 375 -177 61 -29 184 -87 275 -130 91 -43 215 -101
275 -130 252 -120 247 -119 280 -101 17 9 80 40 140 68 208 98 527 248 795
375 58 28 132 63 165 78 33 15 119 56 190 90 72 34 164 78 205 97 41 19 118
55 170 80 52 25 122 58 155 73 33 15 121 57 195 92 74 36 178 84 230 109 52
24 121 58 155 74 l60 30 0 2348 c0 1292 -2 2352 -5 2356 -5 6 -48 27 -325 157
-55 25 -138 64 -185 86 -47 22 -116 55 -155 73 -38 18 -132 63 -208 99 -77 36
-140 66 -142 66 -1 0 -65 30 -141 66 -77 37 -170 81 -209 99 -142 67 -262 123
-346 163 -114 54 -248 117 -334 157 -38 18 -115 54 -170 80 -220 104 -267 125
-278 124 -7 0 -41 -15 -77 -32z" />
    </g>
</svg>